<?xml version="1.0"?>
<svg xmlns="http://www.w3.org/2000/svg" id="Capa_1" enable-background="new 0 0 512 512" height="512px" viewBox="0 0 512 512" width="512px"><g><g><g><path d="m219 257.01c-6.887.214-12.075-7.542-9.23-13.82 3.268-8.161 15.193-8.159 18.46 0 2.843 6.279-2.342 14.034-9.23 13.82z" fill="#FFFFFF"/></g></g><g><g><path d="m422.614 237.013h-4.097v-199.108c.001-20.901-17.003-37.905-37.904-37.905h-249.226c-20.901 0-37.905 17.004-37.905 37.905v199.108h-4.096c-5.523 0-10 4.477-10 10v38.292c0 17.042 13.865 30.908 30.907 30.908h89.778c3.92 2.434 11.284 18.487 13.514 36.047 0 .003.001.006.001.009.75 5.916.426 8.773.309 9.507-3.263 20.467-7.992 35.249-12.164 48.29-4.449 13.908-8.292 25.919-8.292 39.373.001 34.496 28.065 62.561 62.561 62.561 34.495 0 62.56-28.065 62.56-62.561 0-13.428-3.84-25.437-8.286-39.342-4.174-13.052-8.904-27.846-12.169-48.324-.117-.734-.441-3.591.31-9.514 0-.001 0-.003 0-.004 2.23-17.558 9.594-33.609 13.515-36.043h89.777c17.042 0 30.907-13.865 30.907-30.908v-38.292c0-5.522-4.477-9.999-10-9.999zm-309.132-199.108c0-9.873 8.032-17.905 17.905-17.905h157.429v132.316c0 7.949-6.468 14.416-14.417 14.416s-14.416-6.467-14.416-14.416v-69.895c0-5.523-4.478-10-10.001-10s-10 4.477-10 10v48.005c0 7.949-6.467 14.417-14.417 14.417-7.949 0-14.416-6.467-14.416-14.417v-56.994c0-5.523-4.477-10-10-10s-10 4.477-10 10c0 7.949-6.467 14.416-14.417 14.416-7.949 0-14.417-6.467-14.417-14.416 0-5.523-4.477-10-10-10s-10 4.477-10 10v22.788c0 7.949-6.467 14.417-14.417 14.417-7.949 0-14.417-6.467-14.417-14.417v-58.315zm185.078 411.534c0 23.468-19.092 42.561-42.56 42.561s-42.56-19.093-42.56-42.561c0-10.333 3.239-20.46 7.341-33.279 4.171-13.041 9.363-29.27 12.866-51.237.191-1.202.318-2.511.379-3.922h43.948c.062 1.412.189 2.722.381 3.924 3.502 21.974 8.696 38.215 12.869 51.265 4.098 12.816 7.336 22.94 7.336 33.249zm-18.415-108.439h-48.29c-1.431-6.709-3.945-16.242-7.963-24.787h64.215c-4.019 8.546-6.532 18.077-7.962 24.787zm132.469-55.695c0 6.015-4.893 10.908-10.907 10.908h-291.414c-6.014 0-10.907-4.893-10.907-10.908v-28.292h70.285c5.523 0 10-4.477 10-10s-4.477-10-10-10h-56.189v-109.544c4.388 2.032 9.272 3.167 14.417 3.167 16.222 0 29.858-11.279 33.477-26.409 4.625 2.316 9.841 3.62 15.357 3.62 5.145 0 10.029-1.134 14.417-3.167v25.745c0 18.978 15.439 34.417 34.416 34.417 5.596 0 10.883-1.343 15.559-3.722 3.899 14.726 17.339 25.613 33.275 25.613 18.978 0 34.417-15.439 34.417-34.416v-132.317h71.798c9.872 0 17.904 8.032 17.904 17.905v199.108h-132.187c-5.522 0-10 4.477-10 10s4.478 10 10 10h146.282z" fill="#FFFFFF"/></g></g><g><path d="m256 467.667c-5.523 0-10-4.477-10-10v-16c0-5.523 4.477-10 10-10 5.522 0 10 4.477 10 10v16c0 5.523-4.478 10-10 10z" fill="#FFFFFF"/></g></g></svg>
