<?xml version="1.0"?>
<svg xmlns="http://www.w3.org/2000/svg" id="Capa_1" enable-background="new 0 0 512 512" height="512px" viewBox="0 0 512 512" width="512px"><g><g><g><g><g><circle cx="462.034" cy="224.905" r="7.113" fill="#FFFFFF"/></g></g></g></g><path d="m500.348 193.501c-18.705-21.519-50.961-21.804-70.25-2.517-9.401 9.405-22.906 40.909-59.966 84.22-2.057 2.407-5.583 2.931-8.202 1.222l-45.178-29.505c-11.745-7.67-27.472-6.039-37.395 3.881l-95.796 95.796c-7.75 7.752-7.752 20.296 0 28.048l121.635 121.634h-220.771c-17.484 0-31.708-14.224-31.708-31.708v-407.624h27.892v18.094c0 4.13 3.347 7.478 7.478 7.478s7.478-3.347 7.478-7.478v-18.094h259.855v107.776c0 11.032-8.975 20.007-20.006 20.007-11.032 0-20.007-8.975-20.007-20.007v-10.32c0-19.278-15.683-34.962-34.962-34.962s-34.963 15.683-34.963 34.962v50.974c0 11.077-9.051 20.275-20.573 20-10.719-.294-19.44-9.522-19.44-20.571v-87.599c0-.117-.003-.233-.008-.35-.874-18.677-16.213-33.308-34.922-33.308-19.278 0-34.962 15.683-34.962 34.962v15.082c0 11.097-9.088 20.29-20.574 20-10.719-.294-19.44-9.522-19.44-20.571v-23.143c0-4.13-3.347-7.478-7.478-7.478s-7.478 3.347-7.478 7.478v23.142c0 19.063 14.977 35 33.985 35.52 19.871.531 35.939-15.387 35.939-34.949v-15.082c0-11.031 8.975-20.006 20.006-20.006 10.652 0 19.395 8.285 19.974 18.892v87.41c0 19.322 15.414 35.534 34.974 35.534 19.237 0 34.949-15.561 34.949-34.963v-50.974c0-11.031 8.975-20.006 20.007-20.006 11.031 0 20.006 8.975 20.006 20.006v10.32c0 19.278 15.684 34.963 34.963 34.963s34.962-15.684 34.962-34.963v-107.776h86.867v92.492c0 4.13 3.347 7.478 7.478 7.478s7.478-3.347 7.478-7.478v-13.543h10.775c14.88 0 26.986-12.105 26.986-26.986s-12.106-26.986-26.986-26.986h-10.775v-24.977h9.67c15.49 0 28.092-12.602 28.092-28.092s-12.6-28.091-28.09-28.091h-453.775c-15.49 0-28.092 12.602-28.092 28.092s12.602 28.092 28.092 28.092h9.67v24.977h-10.776c-14.88-.001-26.986 12.105-26.986 26.986s12.106 26.986 26.986 26.986h10.775v328.675c0 25.73 20.932 46.663 46.663 46.663h341.109c25.729 0 46.663-20.932 46.663-46.663v-158.16c0-4.13-3.347-7.478-7.478-7.478s-7.478 3.347-7.478 7.478v158.159c0 17.484-14.224 31.708-31.708 31.708h-73.998l86.649-86.649c9.92-9.921 11.553-25.648 3.881-37.394l-29.467-45.123c-1.699-2.601-1.19-6.113 1.185-8.171 53.051-45.955 73.912-47.617 86.99-63.066 15.132-17.876 14.947-44.692-.424-62.376zm-462.586-72.559h-10.776c-6.634 0-12.031-5.397-12.031-12.03 0-6.634 5.397-12.031 12.031-12.031h10.775v24.061zm445.21-24.062c6.634 0 12.031 5.397 12.031 12.031 0 6.633-5.397 12.03-12.031 12.03h-10.775v-24.061zm-454.88-54.887c-7.244 0-13.136-5.892-13.136-13.136s5.892-13.137 13.136-13.137h453.775c7.243 0 13.136 5.892 13.136 13.136s-5.893 13.136-13.136 13.136h-453.775zm303.722 452.857c-1.904 1.906-4.99 1.908-6.896 0l-8.009-8.009 42.767-42.767c2.92-2.921 2.92-7.655 0-10.576-2.921-2.919-7.655-2.919-10.576 0l-42.767 42.767-20.781-20.781 42.767-42.767c2.92-2.921 2.92-7.655 0-10.576-2.921-2.919-7.655-2.919-10.576 0l-42.768 42.768-20.781-20.781 42.767-42.767c2.92-2.921 2.92-7.655 0-10.576-2.921-2.919-7.655-2.919-10.576 0l-42.767 42.767-20.781-20.78 42.767-42.767c2.92-2.921 2.92-7.655 0-10.576-2.921-2.919-7.655-2.919-10.576 0l-42.767 42.767-18.127-18.127c-1.905-1.905-1.907-4.99.001-6.896l79.298-79.298 137.677 137.677zm157.545-248.635c-9.891 11.687-32.634 15.744-85.366 61.424-8.002 6.931-9.685 18.82-3.915 27.652l29.467 45.123c3.824 5.855 3.01 13.695-1.936 18.64l-5.922 5.922-137.676-137.677 5.922-5.922c4.937-4.939 12.775-5.766 18.642-1.936l45.178 29.505c8.887 5.804 20.815 4.076 27.742-4.02 39.038-45.624 50.524-74.718 59.178-83.367 13.429-13.433 35.601-12.956 48.388 1.752 10.574 12.166 10.702 30.611.298 42.904z" fill="#FFFFFF"/></g></svg>
